<?xml version="1.0" standalone="no"?>
<!DOCTYPE svg PUBLIC "-//W3C//DTD SVG 20010904//EN"
 "http://www.w3.org/TR/2001/REC-SVG-20010904/DTD/svg10.dtd">
<svg version="1.0" xmlns="http://www.w3.org/2000/svg"
 width="260.000000pt" height="260.000000pt" viewBox="0 0 260.000000 260.000000"
 preserveAspectRatio="xMidYMid meet">
<metadata>
Created by potrace 1.11, written by Peter Selinger 2001-2013
</metadata>
<g transform="translate(0.000000,260.000000) scale(0.100000,-0.100000)"
fill="#000000" stroke="none">
<path d="M1047 2470 c-161 -28 -350 -107 -522 -217 -87 -56 -254 -224 -318
-321 -220 -331 -268 -798 -118 -1147 12 -27 27 -62 34 -77 7 -16 16 -28 20
-28 5 0 6 3 3 8 -2 4 -7 28 -10 52 l-7 45 31 -55 c16 -30 33 -60 37 -67 61
-92 101 -142 172 -212 47 -46 86 -90 87 -98 7 -45 138 -177 209 -209 85 -39
92 -39 99 8 5 30 10 38 21 34 8 -3 23 -9 32 -13 10 -4 5 5 -12 19 -16 15 -27
29 -24 32 3 3 55 -5 115 -19 148 -33 274 -38 274 -10 0 11 -13 15 -52 16 -29
0 -62 2 -73 4 -11 2 -38 6 -60 10 -47 7 -168 45 -162 51 2 3 17 0 33 -6 16 -6
49 -13 73 -16 24 -2 47 -7 51 -9 13 -8 120 -19 174 -18 34 0 53 6 62 17 7 10
15 17 18 17 31 -4 37 -1 24 13 -9 9 -38 14 -77 15 -34 0 -65 3 -69 5 -4 2 -26
7 -48 10 -43 7 -162 48 -191 66 -16 10 -16 11 2 6 229 -57 396 -52 567 19 13
5 23 -6 46 -52 76 -150 163 -224 254 -217 55 4 172 62 221 110 20 20 37 40 37
44 0 4 -16 20 -35 35 -56 42 -141 131 -212 222 -57 73 -63 86 -52 100 10 12
10 15 2 9 -7 -4 -13 -2 -13 3 0 6 3 11 8 11 4 0 15 12 25 26 l18 25 -33 -21
c-18 -11 -37 -20 -43 -20 -32 0 -276 483 -259 513 37 63 144 194 248 304 63
67 71 72 86 58 9 -8 30 -15 47 -15 44 0 87 -53 115 -142 l23 -73 3 57 c2 32
-1 74 -7 93 -5 19 -6 35 -2 35 4 0 13 -24 20 -52 23 -90 32 -90 28 1 -3 72 -2
81 10 66 7 -11 13 -26 13 -36 0 -24 26 -83 32 -73 3 5 2 38 -1 72 -8 77 2 101
52 125 59 27 53 61 -35 203 -5 7 24 30 70 59 42 26 88 55 102 64 74 46 259
132 348 161 41 13 42 15 37 47 -14 89 -124 228 -201 253 -49 17 -107 9 -177
-24 -66 -32 -188 -120 -267 -194 -54 -49 -55 -50 -75 -32 -11 10 -40 28 -65
41 -43 21 -44 23 -20 29 15 4 24 13 22 21 -1 12 5 14 28 11 16 -2 30 0 30 6 0
24 -76 82 -143 110 -183 77 -544 136 -680 112z m-67 -764 c-22 -63 -99 -266
-171 -452 -73 -187 -141 -363 -152 -391 -11 -29 -23 -53 -26 -53 -20 0 -101
157 -124 240 -43 153 -39 345 9 490 22 65 58 106 133 155 121 78 240 129 141
60 -22 -15 -38 -30 -35 -33 3 -3 -2 -14 -12 -24 -26 -29 -6 -22 137 52 74 37
136 69 137 69 1 1 -15 -50 -37 -113z m525 72 c60 -22 60 -23 -43 -158 -116
-154 -112 -148 -206 -283 -42 -60 -76 -111 -76 -115 0 -14 149 -481 188 -589
l41 -113 -27 -7 c-15 -5 -81 -7 -147 -7 -98 1 -136 7 -208 28 -104 31 -147 51
-147 69 0 22 79 252 134 391 29 72 119 282 201 467 l149 335 56 -4 c30 -2 69
-8 85 -14z"/>
</g>
</svg>
