<?xml version="1.0" encoding="UTF-8" standalone="no"?>
<svg
   xmlns:sketch="http://www.bohemiancoding.com/sketch/ns"
   xmlns:dc="http://purl.org/dc/elements/1.1/"
   xmlns:cc="http://creativecommons.org/ns#"
   xmlns:rdf="http://www.w3.org/1999/02/22-rdf-syntax-ns#"
   xmlns:svg="http://www.w3.org/2000/svg"
   xmlns="http://www.w3.org/2000/svg"
   xmlns:sodipodi="http://sodipodi.sourceforge.net/DTD/sodipodi-0.dtd"
   xmlns:inkscape="http://www.inkscape.org/namespaces/inkscape"
   sodipodi:docname="logo-small.svg"
   inkscape:version="1.0 (4035a4fb49, 2020-05-01)"
   id="svg8"
   version="1.1"
   viewBox="0 0 10.583333 10.583333"
   height="40"
   width="40">
  <defs
     id="defs2" />
  <sodipodi:namedview
     units="px"
     inkscape:window-maximized="1"
     inkscape:window-y="370"
     inkscape:window-x="-8"
     inkscape:window-height="1017"
     inkscape:window-width="1920"
     showguides="true"
     showgrid="false"
     inkscape:document-rotation="0"
     inkscape:current-layer="layer1"
     inkscape:document-units="px"
     inkscape:cy="-40.966547"
     inkscape:cx="118.05284"
     inkscape:zoom="4"
     inkscape:pageshadow="2"
     inkscape:pageopacity="0.0"
     borderopacity="1.0"
     bordercolor="#666666"
     pagecolor="#ffffff"
     id="base" />
  <metadata
     id="metadata5">
    <rdf:RDF>
      <cc:Work
         rdf:about="">
        <dc:format>image/svg+xml</dc:format>
        <dc:type
           rdf:resource="http://purl.org/dc/dcmitype/StillImage" />
        <dc:title></dc:title>
      </cc:Work>
    </rdf:RDF>
  </metadata>
  <g
     id="layer1"
     inkscape:groupmode="layer"
     inkscape:label="Layer 1">
    <g
       transform="matrix(0.58754215,-0.05988629,0.06366621,0.6378647,-0.56332255,0.58624999)"
       id="g1168">
      <path
         id="path1117"
         sketch:type="MSShapeGroup"
         d="m 11.00586,12.810832 c 0.900548,-0.575331 0.95057,-0.525446 0.475285,-0.175148 -0.475285,0.350021 0.37524,-0.150069 -0.07497,0.175148 l -0.200091,0.200091 c 0,0 -0.325217,0.37524 -0.550389,0.400183 -0.225171,0.02494 0.249976,-0.02494 -0.0751,0.125263 -0.325218,0.149931 -2.7044024,1.223423 -6.5539516,-1.576062 1.0758342,1.801096 2.9768382,2.601598 4.5778422,2.626541 0,0 -0.500503,0 -0.225171,0.05002 0.275194,0.05002 -0.125126,0.425124 -2.47661,-0.450206 0.100321,0.225034 0.125263,0.299999 0.400458,0.450206 0,0 -3.0770217,-1.050754 -4.1524426,-4.152443 0.024943,0.375102 0.049885,0.800503 0.049885,0.800503 0,0 -1.5511198,-2.7517999 0.3002745,-6.1537628 C 4.352,1.7292055 8.4294776,1.6042174 8.9797276,1.6291599 c 0.550389,0.024943 3.6269984,0.7253993 4.3274544,1.4509363 0.700595,0.7252616 -0.350021,0.2501141 -0.350021,0.2501141 0,0 -0.350435,0.2000911 0.225171,0.50009 0.575193,0.3004122 1.200547,1.3008679 0.725124,0.9256281 -0.475148,-0.3751019 0.225171,0.4503431 0.300274,0.5003657 0.07497,0.050023 -1.050616,-0.5003657 -0.750341,-0.1751486 0.300136,0.3250793 1.600866,1.7510726 1.175742,2.1764736 -0.425401,0.425124 -0.575607,-0.750618 -0.650572,-0.825583 -0.0751,-0.07524 0.125401,1.725993 0,2.025992 -0.125126,0.300274 -0.100046,-0.675101 -0.350022,-0.975376 -0.250114,-0.300136 -0.325355,-0.275194 -0.500503,-0.275194 -0.174873,0 -0.650159,-0.475147 -0.700319,-0.750479 -0.05002,-0.275195 -0.200092,-0.350298 -0.4254,-0.5753312 -0.225033,-0.2251715 -0.575193,-0.4502052 -1.000455,-0.4252626 -0.425263,0.02508 -0.200092,-0.5003657 -0.925629,-0.5003657 -0.7254014,0 -1.1508014,-0.1248503 -1.7760174,0.150206 -0.625216,0.2751945 -1.776016,0.6002737 -1.876199,0.625216 -0.100045,0.02508 1.050616,-0.625216 1.225903,-0.7253991 0.175011,-0.099908 -2.7267243,0.6504339 -3.2020096,1.8010956 -0.4754231,1.150937 -0.9004101,3.1269065 0.7255366,4.9278599 1.625948,1.801371 4.527545,1.976244 5.8284154,1.075834"
         style="fill:#fe9000;fill-opacity:1;fill-rule:evenodd;stroke:none;stroke-width:0.264583" />
      <path
         style="fill:#ffdd4a;fill-opacity:1;fill-rule:evenodd;stroke:none;stroke-width:0.264583"
         d="m 10.370855,13.207716 c 0.900548,-0.57533 0.95057,-0.525445 0.475285,-0.175147 -0.475285,0.350021 0.37524,-0.150069 -0.07497,0.175147 l -0.200091,0.200092 c 0,0 -0.325217,0.37524 -0.550386,0.400183 -0.2251717,0.02494 0.249974,-0.02494 -0.0751,0.125263 -0.3252178,0.149931 -2.7044008,1.223423 -6.5539496,-1.576062 1.0758341,1.801096 2.9768383,2.601598 4.5778428,2.626541 0,0 -0.500503,0 -0.225171,0.05002 0.275194,0.05002 -0.125127,0.425124 -2.4766105,-0.450206 0.100321,0.225034 0.125263,0.299998 0.400458,0.450206 0,0 -3.0770218,-1.050754 -4.1524427,-4.152444 0.024943,0.375102 0.049885,0.800503 0.049885,0.800503 0,0 -1.55111969,-2.7518088 0.3002745,-6.1537717 1.8511204,-3.4019598 5.9285976,-3.5269479 6.4788476,-3.5020054 0.550389,0.024943 3.6269939,0.7253993 4.3274499,1.4509363 0.700595,0.7252616 -0.350021,0.2501141 -0.350021,0.2501141 0,0 -0.350435,0.2000911 0.225171,0.5000901 0.575193,0.3004121 1.200547,1.3008678 0.725124,0.9256281 -0.475148,-0.3751019 0.225171,0.450343 0.300274,0.5003657 0.07497,0.050023 -1.050616,-0.5003657 -0.750341,-0.1751487 0.300136,0.3250793 1.600866,1.7510726 1.175742,2.1764736 -0.425401,0.425124 -0.575607,-0.7506179 -0.650572,-0.8255828 -0.0751,-0.07524 0.125401,1.7259929 0,2.0259918 -0.125126,0.300274 -0.100046,-0.675101 -0.350022,-0.9753758 -0.250114,-0.3001362 -0.325355,-0.2751942 -0.500503,-0.2751942 -0.174873,0 -0.650159,-0.475147 -0.700319,-0.750479 C 11.74669,6.5786591 11.596618,6.5035561 11.37131,6.278523 11.146277,6.0533514 10.796117,5.8283178 10.370855,5.8532603 9.9455939,5.8783403 10.170764,5.3528946 9.4452287,5.3528946 c -0.725399,0 -1.150799,-0.1248503 -1.776016,0.1502061 C 7.0439967,5.7782951 5.8931971,6.1033744 5.793014,6.1283166 5.6929689,6.1533965 6.8436307,5.5031007 7.0189167,5.4029175 7.1939277,5.3030095 4.2921928,6.0533514 3.8169075,7.2040132 3.3414843,8.3549502 2.9164973,10.330923 4.5424439,12.131883 c 1.6259482,1.801371 4.5275448,1.976244 5.8284111,1.075833"
         sketch:type="MSShapeGroup"
         id="path1117-8" />
      <path
         id="path1117-8-2"
         sketch:type="MSShapeGroup"
         d="m 10.661832,12.943141 c 0.900547,-0.57533 0.950569,-0.525445 0.475285,-0.175147 -0.475285,0.350021 0.375239,-0.150069 -0.07497,0.175147 l -0.200091,0.200092 c 0,0 -0.325217,0.37524 -0.550389,0.400183 -0.225171,0.02494 0.249977,-0.02494 -0.0751,0.125263 -0.3252183,0.149931 -2.7044013,1.223423 -6.5539501,-1.576062 1.0758342,1.801096 2.9768384,2.601598 4.577843,2.626541 0,0 -0.5005031,0 -0.225171,0.05002 0.2751939,0.05002 -0.125127,0.425124 -2.4766106,-0.450206 0.100321,0.225034 0.125263,0.299998 0.400458,0.450206 0,0 -3.0770219,-1.050754 -4.1524427,-4.152444 0.024943,0.375102 0.049885,0.800503 0.049885,0.800503 0,0 -1.55111985,-2.7518054 0.3002745,-6.1537683 1.8511204,-3.4019598 5.9285977,-3.5269479 6.4788479,-3.5020054 0.5503889,0.024943 3.626996,0.7253993 4.327452,1.4509363 0.700595,0.7252616 -0.350021,0.2501141 -0.350021,0.2501141 0,0 -0.350435,0.2000911 0.225171,0.5000902 0.575193,0.300412 1.200547,1.3008677 0.725124,0.925628 -0.475148,-0.3751019 0.225171,0.450343 0.300274,0.5003657 0.07497,0.050023 -1.050616,-0.5003657 -0.750341,-0.1751487 0.300136,0.3250793 1.600866,1.7510726 1.175742,2.1764736 -0.425401,0.425124 -0.575607,-0.7506179 -0.650572,-0.8255828 -0.0751,-0.07524 0.125401,1.7259929 0,2.0259918 -0.125126,0.300274 -0.100046,-0.675101 -0.350022,-0.9753756 -0.250114,-0.3001364 -0.325355,-0.2751944 -0.500503,-0.2751944 -0.174873,0 -0.650159,-0.475147 -0.700319,-0.750479 -0.05002,-0.275195 -0.200092,-0.350298 -0.4254,-0.5753311 C 11.437253,5.7887798 11.087094,5.5637462 10.661832,5.5886887 10.236568,5.6137685 10.461739,5.088323 9.7362028,5.088323 9.010804,5.088323 8.585404,4.9634727 7.960187,5.2385291 7.3349708,5.5137235 6.1841714,5.8388028 6.0839883,5.863745 5.983943,5.888825 7.134605,5.2385291 7.3098909,5.1383459 c 0.175011,-0.099908 -2.726724,0.6504339 -3.2020094,1.8010957 -0.475423,1.1509372 -0.90041,3.1269064 0.7255365,4.9278664 1.6259484,1.801371 4.5275448,1.976244 5.828414,1.075833"
         style="fill:#5adbff;fill-opacity:1;fill-rule:evenodd;stroke:none;stroke-width:0.264583" />
    </g>
    <text
       id="text12"
       y="9.1942577"
       x="1.4646554"
       style="font-size:10.5833px;line-height:1.25;font-family:'Kaushan Script';-inkscape-font-specification:'Kaushan Script';fill:#094074;fill-opacity:1;stroke-width:0.264583"
       xml:space="preserve"><tspan
         style="fill:#094074;fill-opacity:1;stroke-width:0.264583"
         y="9.1942577"
         x="1.4646554"
         id="tspan10"
         sodipodi:role="line">K</tspan></text>
    <text
       id="text16"
       y="12.107308"
       x="31.598801"
       style="font-size:10.5833px;line-height:1.25;font-family:'Kaushan Script';-inkscape-font-specification:'Kaushan Script';fill:#3c6994;fill-opacity:1;stroke-width:0.264583"
       xml:space="preserve"><tspan
         style="fill:#3c6994;fill-opacity:1;stroke-width:0.264583"
         y="12.107308"
         x="31.598801"
         id="tspan14"
         sodipodi:role="line" /></text>
  </g>
</svg>
